{"accessors":[{"name":"lamp_Sphere-Mesh_0_positions","componentType":5126,"count":4355,"min":[-2.0975499153137207,1.0800700187683105,2.9201819896698],"max":[2.0975489616394043,18.172714233398438,10.374584197998047],"type":"VEC3","bufferView":0,"byteOffset":0},{"name":"lamp_Sphere-Mesh_0_normals","componentType":5126,"count":4355,"min":[-1,-0.9998059272766113,-1],"max":[1,0.9998039603233337,1],"type":"VEC3","bufferView":1,"byteOffset":0},{"name":"lamp_Sphere-Mesh_0_indices","componentType":5123,"count":22470,"min":[0],"max":[4354],"type":"SCALAR","bufferView":2,"byteOffset":0}],"asset":{"generator":"obj2gltf","version":"2.0"},"buffers":[{"name":"input","byteLength":149460,"uri":"data:application/octet-stream;base64,"}],"bufferViews":[{"name":"bufferView_0","buffer":0,"byteLength":52260,"byteOffset":0,"byteStride":12,"target":34962},{"name":"bufferView_1","buffer":0,"byteLength":52260,"byteOffset":52260,"byteStride":12,"target":34962},{"name":"bufferView_3","buffer":0,"byteLength":44940,"byteOffset":104520,"target":34963}],"materials":[{"name":"Material.001","pbrMetallicRoughness":{"baseColorFactor":[0.5,0.5,0.5,1],"metallicFactor":0,"roughnessFactor":1},"emissiveFactor":[0,0,0],"alphaMode":"OPAQUE","doubleSided":false}],"meshes":[{"name":"lamp_Sphere-Mesh","primitives":[{"attributes":{"POSITION":0,"NORMAL":1},"indices":2,"material":0,"mode":4}]}],"nodes":[{"name":"lamp_Sphere","mesh":0}],"scene":0,"scenes":[{"nodes":[0]}]}
